<svg width="124" height="122" viewBox="0 0 124 122" fill="none" xmlns="http://www.w3.org/2000/svg">
<path fill-rule="evenodd" clip-rule="evenodd" d="M76.7432 94.0243L111.661 75.82V100.092L120.823 95.269C121.63 94.8541 123.278 93.3397 123.416 90.6013C123.554 87.8629 123.474 54.6076 123.416 38.3223C123.243 37.2332 122.206 35.335 119.44 35.8328C117.691 36.1478 104.325 43.222 90.7123 50.4264L90.7114 50.4269C82.8017 54.6131 74.809 58.8433 68.9643 61.8167C66.5443 63.8394 65.3126 65.8621 65.1614 68.0404C65.0684 69.3791 65.1004 84.1958 65.1314 98.5235C65.1465 105.512 65.1614 112.384 65.1614 117.519C65.1614 120.008 68.0798 122.654 70.8658 121.253C73.8046 119.775 74.5824 119.386 74.9714 119.191L75.1896 119.082C75.4259 118.964 75.6618 118.844 76.733 118.302L76.7432 118.297V94.0243ZM105.784 66.7957L76.7432 81.8881C76.7432 81.1051 76.7736 80.2673 76.8089 79.2945C76.8578 77.9476 76.916 76.3419 76.916 74.2641C76.916 71.4012 80.2004 68.1441 81.7562 67.2625L111.834 51.7032V59.0161C111.834 61.6611 109.241 65.0842 105.784 66.7957Z" fill="#EC7E32"/>
<path d="M0.337708 89.5121L0.51057 38.4779C0.51057 35.615 3.96782 35.7291 5.69644 36.144C19.4102 43.1457 47.7367 58.2381 52.7151 60.7276C57.6936 63.2171 58.7653 67.2625 58.7653 69.1296V75.82C47.0683 70.2187 22.4641 56.8378 17.7968 54.5039C13.1295 52.17 11.9195 54.3483 11.9195 57.149V87.9562L47.0107 106.16C47.0107 103.049 47.238 98.3639 47.0107 97.1361C46.6649 95.269 44.9363 92.9351 42.6891 91.846C39.059 89.9789 31.1073 86.0891 27.8229 84.0664C24.6662 82.1223 23.7318 77.7909 23.6742 76.1312V69.9075C31.8564 74.2641 49.4308 83.1329 53.2337 85.1555C56.9608 87.1379 58.3044 91.6904 58.5925 93.4019C58.5925 100.559 58.7653 113.007 58.7653 117.208C58.7653 121.302 54.3285 121.823 53.0609 121.253C37.8489 113.629 7.42507 97.6029 4.14069 95.8914C1.26339 94.392 0.337722 92.0016 0.337708 89.5121Z" fill="#70AD47"/>
<path d="M79.8547 13.1165L38.3675 34.5882C34.9103 32.5655 34.7374 32.5655 32.8359 31.1651C30.9344 29.7648 30.9344 26.1862 34.046 24.4747L73.2859 4.09212C72.5944 3.46975 71.9029 2.84739 66.5442 1.13588C61.0627 -0.614866 56.2877 0.980284 54.6167 1.91384C40.6724 8.86362 13.3024 23.0744 8.9809 25.4082C5.23974 27.4287 7.25218 30.3872 8.98086 31.3207L38.5404 46.5688C51.3323 39.619 77.884 25.4705 81.7562 24.4747C85.6283 23.4789 89.4774 24.4747 90.9179 25.0971L96.7952 28.3645L50.468 52.6369C52.0238 53.5704 53.4348 54.4419 57.2096 56.0599C60.8397 57.6158 63.6056 57.6401 67.5814 55.5931C81.9866 48.1766 111.627 32.9078 114.946 31.1651C117.539 29.8037 117.366 27.2753 114.946 25.7194C108.953 22.5039 95.758 15.4815 90.9179 13.1165C86.0777 10.7515 81.5257 12.1311 79.8547 13.1165Z" fill="#4472C4"/>
</svg>
