<svg width="1496" height="391" viewBox="0 0 1496 391" fill="none" xmlns="http://www.w3.org/2000/svg">
<g clip-path="url(#clip0_75_2)" filter="url(#filter0_i_75_2)">
<path d="M144.316 311.141L140.081 300.522C179.77 295.294 236.885 267.031 276.212 241.98C294.665 231.633 316.416 216.826 340.344 192.151C367.622 164.022 375.222 141.222 379.066 122.445C381.414 110.975 375.738 94.9439 347.907 84.3247C320.076 73.7054 279.842 81.8741 269.556 82.9632C261.328 83.8345 242.128 89.4981 233.557 92.221L230.532 89.4981C251.103 81.0027 286.497 74.7945 311.001 73.1608C327.034 72.0918 352.808 75.0124 371.201 86.7753C389.594 98.5381 392.076 118.905 388.747 137.421C385.923 153.123 366.724 194.547 311.303 237.896C255.883 281.244 181.828 304.606 144.316 311.141Z" fill="#4472C4"/>
<path d="M21.7981 255.867L15.4453 253.144C10.6051 264.852 14.7115 277.688 17.8654 284.457C21.7981 292.898 30.2684 301.884 50.2343 309.508C66.207 315.607 97.7289 315.77 111.039 315.226L106.804 305.968C93.4937 305.968 63.2424 307.602 43.2765 296.71C24.3021 286.359 18.7729 273.566 21.7981 255.867Z" fill="#4472C4"/>
<path d="M42.9739 212.028L37.8312 209.033C43.1554 200.973 72.5194 175.723 86.5358 164.105V168.19C70.3211 179.517 50.7384 202.135 42.9739 212.028Z" fill="#4472C4"/>
<path d="M139.173 62.5415L125.258 60.3632C125.258 58.6206 133.728 45.9319 139.778 36.9464C147.946 26.8717 162.164 11.8958 176.382 7.53918C190.071 3.34463 201.491 2.63797 215.104 6.7223C225.994 9.98977 235.171 17.5231 238.398 20.8813L232.65 24.4211C230.734 22.7874 226.115 19.0842 222.969 17.3416C219.037 15.1633 203.518 9.58056 191.205 12.7127C177.29 16.2524 174.265 19.2476 165.189 26.5994C157.626 32.7266 144.921 51.4685 139.173 62.5415Z" fill="#4472C4"/>
<path d="M355.773 305.423L355.47 296.982C358.495 295.621 366.361 290.992 369.991 287.18C377.554 279.238 378.159 272.749 379.066 262.946C379.544 257.784 376.646 243.886 372.713 235.717C369.567 229.182 360.31 215.75 356.075 209.85L364.545 199.231C365.151 200.048 368.478 203.043 373.318 211.484C379.671 222.562 389.049 237.623 389.049 255.05C389.049 261.065 390.38 271.387 382.394 286.091C377.07 295.893 362.327 303.154 355.773 305.423Z" fill="#4472C4"/>
<path d="M290.127 161.383L287.405 159.749C289.522 188.884 288.615 205.221 287.405 224.281L289.522 223.464C291.337 209.305 290.631 179.807 290.127 161.383Z" fill="#4472C4"/>
<path d="M266.834 62.5416L262.599 64.4476C266.834 70.9825 273.265 89.8489 274.397 93.5825C276.212 99.5729 279.136 110.192 280.144 116.999H283.169C281.959 101.969 271.876 74.613 266.834 62.5416Z" fill="#4472C4"/>
<path d="M125.56 140.416V138.51C134.232 133.518 145.526 126.109 155.206 121.356C159.139 119.425 176.08 111.009 185.155 107.197L187.575 108.558C171.845 115.093 162.467 119.45 152.181 125.168C148.551 127.186 135.24 134.698 125.56 140.416Z" fill="#4472C4"/>
<path d="M125.258 246.609V243.886C135.241 250.966 166.097 266.486 187.575 276.288L185.458 277.65C177.955 275.254 142.198 255.957 125.258 246.609Z" fill="#4472C4"/>
<path d="M234.162 292.626L230.23 294.26C232.045 295.893 272.244 305.96 273.489 306.24C278.329 307.329 290.127 309.508 302.228 310.052V304.879C294.06 304.879 281.354 303.79 275.002 302.7C269.053 301.681 245.154 295.802 234.162 292.626Z" fill="#4472C4"/>
<path d="M126.77 91.6765L112.249 89.2259C98.0314 111.009 83.4852 239.802 120.72 314.681C154.216 382.042 187.273 390.105 216.012 380.847C246.489 371.03 276.514 311.958 283.169 268.12C279.539 268.12 280.198 267.789 280.144 268.12C274.654 301.884 257.394 338.857 233.557 359.337C215.789 374.603 188.18 371.317 178.197 366.895C170.635 363.545 162.769 355.525 159.442 352.257C156.114 348.99 141.593 331.019 128.585 295.621C105.888 233.857 112.249 129.252 126.77 91.6765Z" fill="#4472C4"/>
<path d="M86.5358 216.385V220.469L52.9568 191.334C46.3015 185.344 26.1199 160.021 20.2853 146.679C10.4022 124.079 12.2372 110.234 18.4703 98.2115C26.9406 81.8741 60.8221 61.398 115.274 67.7151C183.34 75.6115 208.839 89.7059 245.355 105.836C278.027 120.267 317.958 150.491 343.672 175.269L333.689 185.889C266.229 122.718 189.39 100.117 179.407 96.3055C150.886 85.4143 100.754 77.5175 70.5026 79.9681C46.3015 81.9286 31.3775 94.944 26.9406 101.207C22.6046 107.106 17.0182 125.495 29.3607 151.852C41.7033 178.21 72.6202 205.856 86.5358 216.385Z" fill="#4472C4"/>
<ellipse cx="251.406" cy="42.1199" rx="18.1508" ry="16.3373" fill="#70AD47"/>
<path d="M347 305.696C347 314.718 338.873 322.033 328.849 322.033C318.824 322.033 310.698 314.718 310.698 305.696C310.698 296.673 318.824 289.358 328.849 289.358C338.873 289.358 347 296.673 347 305.696Z" fill="#4473C5"/>
<ellipse cx="28.1508" cy="231.633" rx="18.1508" ry="16.3373" fill="#ED7D31"/>
<path fill-rule="evenodd" clip-rule="evenodd" d="M212.75 226.598L250.661 206.833V233.186L260.608 227.949C261.484 227.499 263.273 225.854 263.423 222.881C263.573 219.908 263.486 183.802 263.423 166.121C263.236 164.939 262.11 162.878 259.107 163.418C257.207 163.76 242.695 171.441 227.916 179.263L227.915 179.263C219.328 183.808 210.65 188.401 204.304 191.629C201.677 193.825 200.339 196.022 200.175 198.387C200.074 199.84 200.109 215.927 200.143 231.482C200.159 239.07 200.175 246.531 200.175 252.106C200.175 254.809 203.344 257.682 206.369 256.16C209.559 254.555 210.404 254.133 210.826 253.922L211.063 253.803C211.32 253.675 211.576 253.545 212.739 252.956L212.75 252.95V226.598ZM244.28 197.035L212.75 213.421C212.75 212.571 212.783 211.661 212.821 210.605C212.874 209.143 212.937 207.4 212.937 205.144C212.937 202.035 216.503 198.499 218.192 197.542L250.849 180.649V188.589C250.849 191.46 248.034 195.177 244.28 197.035Z" fill="#EC7E32"/>
<path d="M129.795 221.699L129.983 166.29C129.983 163.182 133.737 163.306 135.613 163.756C150.503 171.358 181.257 187.744 186.662 190.447C192.067 193.15 193.231 197.542 193.231 199.569V206.833C180.531 200.752 153.818 186.224 148.751 183.69C143.684 181.156 142.37 183.521 142.37 186.562V220.009L180.469 239.774C180.469 236.395 180.716 231.309 180.469 229.976C180.093 227.949 178.217 225.415 175.777 224.233C171.836 222.205 163.202 217.982 159.636 215.786C156.209 213.676 155.195 208.973 155.132 207.171V200.414C164.016 205.144 183.096 214.773 187.225 216.969C191.272 219.121 192.731 224.064 193.043 225.922C193.043 233.693 193.231 247.207 193.231 251.768C193.231 256.213 188.414 256.78 187.038 256.16C170.522 247.883 137.49 230.483 133.924 228.625C130.8 226.997 129.795 224.402 129.795 221.699Z" fill="#70AD47"/>
<path d="M216.128 138.755L171.085 162.067C167.331 159.871 167.144 159.871 165.079 158.35C163.015 156.83 163.015 152.945 166.393 151.087L208.996 128.957C208.245 128.281 207.495 127.606 201.677 125.747C195.725 123.846 190.541 125.578 188.727 126.592C173.587 134.137 143.871 149.566 139.179 152.1C135.118 154.294 137.303 157.506 139.179 158.519L171.273 175.074C185.161 167.529 213.989 152.168 218.193 151.087C222.397 150.005 226.576 151.087 228.14 151.762L234.521 155.31L184.223 181.663C185.912 182.676 187.444 183.622 191.542 185.379C195.483 187.068 198.486 187.095 202.803 184.872C218.443 176.82 250.624 160.243 254.227 158.35C257.042 156.872 256.855 154.127 254.227 152.438C247.721 148.947 233.395 141.323 228.14 138.755C222.885 136.187 217.942 137.685 216.128 138.755Z" fill="#4472C4"/>
<path d="M468.544 99.8H517.312C519.04 99.8 519.904 100.664 519.904 102.296V113.528C519.904 115.16 519.04 116.024 517.312 116.024H469.216C460.864 116.024 458.848 118.232 458.848 126.872V140.216C458.848 148.856 460.864 151.064 469.216 151.064H499.744C502.624 151.064 503.68 149.912 503.68 146.744V141.08C503.68 140.12 503.296 139.736 502.432 139.736H476.8C475.072 139.736 474.304 138.872 474.304 137.24V128.6C474.304 126.968 475.072 126.104 476.8 126.104H516.928C518.848 126.104 519.808 127.064 519.808 128.984V152.312C519.808 163.064 515.488 167 507.712 167H468.544C448.864 167 441.376 160.088 441.376 141.656V125.144C441.376 106.712 448.864 99.8 468.544 99.8ZM538.402 95H549.538C551.266 95 552.13 95.864 552.13 97.496V164.504C552.13 166.136 551.266 167 549.538 167H538.402C536.674 167 535.906 166.136 535.906 164.504V97.496C535.906 95.864 536.674 95 538.402 95ZM590.822 113.624H618.278C635.75 113.624 641.318 119.192 641.318 133.304V147.32C641.318 161.432 635.75 167 618.278 167H590.822C573.35 167 567.686 161.432 567.686 147.32V133.304C567.686 119.192 573.35 113.624 590.822 113.624ZM583.91 136.184V144.44C583.91 151.736 585.542 153.752 592.454 153.752H616.646C623.558 153.752 625.094 151.736 625.094 144.44V136.184C625.094 128.792 623.558 126.872 616.646 126.872H592.454C585.542 126.872 583.91 128.792 583.91 136.184ZM659.276 95H670.508C672.14 95 673.004 95.864 673.004 97.496V113.624H707.084C724.556 113.624 730.124 119.192 730.124 133.304V147.32C730.124 161.432 724.556 167 707.084 167H679.916C662.444 167 656.78 161.432 656.78 147.32V97.496C656.78 95.864 657.644 95 659.276 95ZM705.452 127.16H673.004V144.152C673.004 151.448 674.636 153.368 681.548 153.368H705.452C712.364 153.368 713.9 151.448 713.9 144.152V136.472C713.9 129.176 712.364 127.16 705.452 127.16ZM747.309 113.624H788.877C806.349 113.624 812.013 119.192 812.013 133.304V159.224C812.013 165.56 810.477 167 804.909 167H758.733C747.213 167 743.661 162.872 743.661 153.176V148.184C743.661 140.12 747.213 135.512 758.733 135.512H795.789V133.976C795.789 129.08 794.157 127.16 787.245 127.16H747.309C745.965 127.16 745.293 126.488 745.293 125.144V115.64C745.293 114.296 745.965 113.624 747.309 113.624ZM793.389 154.52C795.117 154.52 795.789 153.752 795.789 151.832V145.496H763.437C760.653 145.496 759.597 146.744 759.597 149.048V150.872C759.597 153.368 760.653 154.52 763.437 154.52H793.389ZM829.102 95H840.238C841.966 95 842.83 95.864 842.83 97.496V164.504C842.83 166.136 841.966 167 840.238 167H829.102C827.374 167 826.606 166.136 826.606 164.504V97.496C826.606 95.864 827.374 95 829.102 95Z" fill="#70AD47"/>
<path d="M913.383 99.8H963.783C965.511 99.8 966.279 100.664 966.279 102.296V113.048C966.279 114.776 965.511 115.64 963.783 115.64H916.839C914.247 115.64 913.095 117.08 913.095 119.672V122.168C913.095 124.856 914.247 126.2 916.743 126.2H951.303C962.631 126.2 968.775 132.44 968.775 143.288V150.968C968.775 160.568 963.015 167 951.015 167H898.215C896.583 167 895.719 166.136 895.719 164.504V153.752C895.719 152.024 896.583 151.256 898.215 151.256H947.559C950.247 151.256 951.399 149.72 951.399 147.128V144.056C951.399 141.368 950.247 140.024 947.655 140.024H913.191C901.767 140.024 895.623 133.784 895.623 122.936V115.928C895.623 106.232 901.479 99.8 913.383 99.8ZM985.415 113.624H1026.98C1044.45 113.624 1050.12 119.192 1050.12 133.304V159.224C1050.12 165.56 1048.58 167 1043.01 167H996.839C985.319 167 981.767 162.872 981.767 153.176V148.184C981.767 140.12 985.319 135.512 996.839 135.512H1033.89V133.976C1033.89 129.08 1032.26 127.16 1025.35 127.16H985.415C984.071 127.16 983.399 126.488 983.399 125.144V115.64C983.399 114.296 984.071 113.624 985.415 113.624ZM1031.49 154.52C1033.22 154.52 1033.89 153.752 1033.89 151.832V145.496H1001.54C998.759 145.496 997.703 146.744 997.703 149.048V150.872C997.703 153.368 998.759 154.52 1001.54 154.52H1031.49ZM1087.56 113.624H1137C1154.47 113.624 1160.14 119.192 1160.14 133.304V164.504C1160.14 166.136 1159.27 167 1157.64 167H1146.41C1144.78 167 1143.91 166.136 1143.91 164.504V137.24C1143.91 130.04 1143.05 128.024 1136.14 128.024H1120.39V164.504C1120.39 166.136 1119.53 167 1117.9 167H1106.66C1105.03 167 1104.17 166.136 1104.17 164.504V128.024H1089.19C1082.28 128.024 1080.65 130.04 1080.65 137.24V164.504C1080.65 166.136 1079.78 167 1078.15 167H1066.92C1065.29 167 1064.42 166.136 1064.42 164.504V133.304C1064.42 119.192 1070.09 113.624 1087.56 113.624ZM1199.24 113.624H1226.4C1243.88 113.624 1249.44 119.192 1249.44 133.304V147.32C1249.44 161.432 1243.88 167 1226.4 167H1192.32V185.72C1192.32 187.352 1191.46 188.216 1189.83 188.216H1178.6C1176.96 188.216 1176.1 187.352 1176.1 185.72V133.304C1176.1 119.192 1181.76 113.624 1199.24 113.624ZM1192.32 136.472V153.368H1224.77C1231.68 153.368 1233.22 151.448 1233.22 144.152V136.472C1233.22 129.176 1231.68 127.16 1224.77 127.16H1200.87C1193.96 127.16 1192.32 129.176 1192.32 136.472ZM1267.68 95H1278.82C1280.55 95 1281.41 95.864 1281.41 97.496V164.504C1281.41 166.136 1280.55 167 1278.82 167H1267.68C1265.96 167 1265.19 166.136 1265.19 164.504V97.496C1265.19 95.864 1265.96 95 1267.68 95ZM1300.33 113.624H1311.46C1313.19 113.624 1314.05 114.392 1314.05 116.12V164.504C1314.05 166.136 1313.19 167 1311.46 167H1300.33C1298.6 167 1297.83 166.136 1297.83 164.504V116.12C1297.83 114.392 1298.6 113.624 1300.33 113.624ZM1300.33 93.56H1311.56C1313.19 93.56 1314.05 94.424 1314.05 96.056V105.464C1314.05 107.192 1313.19 107.96 1311.56 107.96H1300.33C1298.69 107.96 1297.83 107.192 1297.83 105.464V96.056C1297.83 94.424 1298.69 93.56 1300.33 93.56ZM1353.32 113.624H1381.16C1398.63 113.624 1404.2 119.192 1404.2 133.304V164.504C1404.2 166.136 1403.34 167 1401.71 167H1390.47C1388.84 167 1387.98 166.136 1387.98 164.504V137.24C1387.98 130.04 1387.11 128.024 1380.2 128.024H1354.95C1348.04 128.024 1346.41 130.04 1346.41 137.24V164.504C1346.41 166.136 1345.55 167 1343.91 167H1332.68C1331.05 167 1330.19 166.136 1330.19 164.504V133.304C1330.19 119.192 1335.85 113.624 1353.32 113.624ZM1442.67 113.624H1469.84C1487.31 113.624 1492.88 119.192 1492.88 133.208V168.44C1492.88 182.648 1487.31 188.216 1469.84 188.216H1424.34C1422.99 188.216 1422.32 187.544 1422.32 186.2V176.6C1422.32 175.256 1422.99 174.584 1424.34 174.584H1468.21C1475.12 174.584 1476.66 172.664 1476.66 165.272V162.872H1442.67C1425.2 162.872 1419.54 157.208 1419.54 143V133.4C1419.54 119.192 1425.2 113.624 1442.67 113.624ZM1435.76 142.904C1435.76 148.28 1437.39 150.296 1444.3 150.296H1476.66V134.648C1476.66 128.888 1475.12 126.872 1468.21 126.872H1444.3C1437.39 126.872 1435.76 128.888 1435.76 134.264V142.904Z" fill="#4472C4"/>
<path d="M458.752 209.176H482.464C489.472 209.176 492.64 213.496 492.64 219.064V226.744C492.64 234.136 491.296 237.304 485.248 240.664L477.856 244.696L489.376 254.968L501.76 240.472C502.336 239.8 502.912 239.416 504.448 239.416H513.856C515.68 239.416 516.256 240.952 515.104 242.2L498.016 262.648L517.984 280.408C518.848 281.272 518.368 283 516.928 283H504.832C503.488 283 502.816 282.616 502.048 281.848L490.624 271.48L487.168 275.608C482.176 281.656 479.296 283 470.56 283H452.512C444.736 283 439.936 278.776 439.936 269.272V263.608C439.936 256.6 442.336 252.28 448.768 248.728L459.52 242.872L454.24 238.072C450.208 234.328 449.152 231.928 449.152 226.744V220.888C449.152 213.784 451.936 209.176 458.752 209.176ZM470.08 271.576C474.304 271.576 475.648 270.904 478.048 268.12L481.984 263.512L467.488 250.264L458.08 255.352C455.008 256.792 453.664 259.48 453.664 263.128V265.816C453.664 270.04 455.584 271.576 458.752 271.576H470.08ZM462.496 227.8C462.496 230.296 462.88 231.256 464.8 232.984L469.696 237.4L476.992 233.368C479.776 232.024 480.256 230.68 480.256 227.8V224.152C480.256 221.848 479.008 220.408 476.608 220.408H465.76C463.552 220.408 462.496 221.944 462.496 224.728V227.8ZM604.76 215.8H611.48C617.24 215.8 620.6 217.432 624.248 224.248L654.2 280.408C655.064 281.944 654.776 283 652.856 283H638.264C636.92 283 636.344 282.616 635.768 281.656L629.912 270.424H588.248L582.488 281.656C582.008 282.616 581.336 283 579.992 283H565.016C563.192 283 562.904 281.944 563.672 280.408L593.144 224.248C596.696 217.432 600.248 215.8 604.76 215.8ZM607.544 232.6L594.968 257.272H623.096L610.232 232.6C609.944 232.12 609.656 231.928 609.176 231.928H608.696C608.216 231.928 607.928 232.12 607.544 232.6ZM689.385 229.624H717.225C734.697 229.624 740.265 235.192 740.265 249.304V280.504C740.265 282.136 739.401 283 737.769 283H726.537C724.905 283 724.041 282.136 724.041 280.504V253.24C724.041 246.04 723.177 244.024 716.265 244.024H691.017C684.105 244.024 682.473 246.04 682.473 253.24V280.504C682.473 282.136 681.609 283 679.977 283H668.745C667.113 283 666.249 282.136 666.249 280.504V249.304C666.249 235.192 671.913 229.624 689.385 229.624ZM757.902 229.624H799.47C816.942 229.624 822.606 235.192 822.606 249.304V275.224C822.606 281.56 821.07 283 815.502 283H769.326C757.806 283 754.254 278.872 754.254 269.176V264.184C754.254 256.12 757.806 251.512 769.326 251.512H806.382V249.976C806.382 245.08 804.75 243.16 797.838 243.16H757.902C756.558 243.16 755.886 242.488 755.886 241.144V231.64C755.886 230.296 756.558 229.624 757.902 229.624ZM803.982 270.52C805.71 270.52 806.382 269.752 806.382 267.832V261.496H774.03C771.246 261.496 770.19 262.744 770.19 265.048V266.872C770.19 269.368 771.246 270.52 774.03 270.52H803.982ZM839.696 211H850.832C852.56 211 853.424 211.864 853.424 213.496V280.504C853.424 282.136 852.56 283 850.832 283H839.696C837.968 283 837.2 282.136 837.2 280.504V213.496C837.2 211.864 837.968 211 839.696 211ZM926.483 229.624H939.251C940.787 229.624 941.459 230.968 940.787 232.408L906.323 297.112C903.731 302.008 898.835 304.216 889.619 304.216H882.323C880.979 304.216 880.307 303.544 880.307 302.2V292.888C880.307 291.544 880.979 290.872 882.323 290.872H888.467C890.771 290.872 892.115 290.296 892.883 288.856L897.107 280.984C892.979 280.792 890.963 279.352 889.139 276.088L865.427 232.408C864.755 230.968 865.331 229.624 866.963 229.624H880.115C881.459 229.624 882.227 230.008 882.707 231.064L901.043 265.72C902.003 267.544 902.387 268.216 903.827 268.408L923.891 231.064C924.371 230.008 925.139 229.624 926.483 229.624ZM966.472 229.624H1013.61C1014.95 229.624 1015.62 230.296 1015.62 231.64V240.664C1015.62 242.008 1014.95 242.68 1013.61 242.68H970.888C968.104 242.68 967.048 243.736 967.048 245.944V247.192C967.048 249.112 968.104 250.264 970.888 250.264H1002.76C1013.51 250.264 1017.93 254.872 1017.93 263.512V269.272C1017.93 277.624 1014.09 283 1002.66 283H953.224C951.88 283 951.208 282.328 951.208 280.984V271.96C951.208 270.616 951.88 269.944 953.224 269.944H998.248C1001.03 269.944 1002.18 268.888 1002.18 266.584V264.088C1002.18 262.264 1001.03 261.112 998.248 261.112H966.376C955.624 261.112 951.208 256.504 951.208 247.768V243.16C951.208 235 955.048 229.624 966.472 229.624ZM1035.13 229.624H1046.26C1047.99 229.624 1048.86 230.392 1048.86 232.12V280.504C1048.86 282.136 1047.99 283 1046.26 283H1035.13C1033.4 283 1032.63 282.136 1032.63 280.504V232.12C1032.63 230.392 1033.4 229.624 1035.13 229.624ZM1035.13 209.56H1046.36C1047.99 209.56 1048.86 210.424 1048.86 212.056V221.464C1048.86 223.192 1047.99 223.96 1046.36 223.96H1035.13C1033.5 223.96 1032.63 223.192 1032.63 221.464V212.056C1032.63 210.424 1033.5 209.56 1035.13 209.56ZM1079.29 229.624H1126.43C1127.77 229.624 1128.44 230.296 1128.44 231.64V240.664C1128.44 242.008 1127.77 242.68 1126.43 242.68H1083.71C1080.92 242.68 1079.87 243.736 1079.87 245.944V247.192C1079.87 249.112 1080.92 250.264 1083.71 250.264H1115.58C1126.33 250.264 1130.75 254.872 1130.75 263.512V269.272C1130.75 277.624 1126.91 283 1115.48 283H1066.04C1064.7 283 1064.03 282.328 1064.03 280.984V271.96C1064.03 270.616 1064.7 269.944 1066.04 269.944H1111.07C1113.85 269.944 1115 268.888 1115 266.584V264.088C1115 262.264 1113.85 261.112 1111.07 261.112H1079.19C1068.44 261.112 1064.03 256.504 1064.03 247.768V243.16C1064.03 235 1067.87 229.624 1079.29 229.624ZM1185.28 215.8H1197.76C1199.39 215.8 1200.26 216.664 1200.26 218.296V255.928C1200.26 264.568 1202.27 266.776 1210.62 266.776H1249.41C1251.14 266.776 1252 267.64 1252 269.272V280.504C1252 282.136 1251.14 283 1249.41 283H1209.95C1190.27 283 1182.78 276.088 1182.78 257.656V218.296C1182.78 216.664 1183.65 215.8 1185.28 215.8ZM1244.92 215.8H1320.09C1321.72 215.8 1322.59 216.664 1322.59 218.296V229.528C1322.59 231.16 1321.72 232.024 1320.09 232.024H1291.2V280.504C1291.2 282.136 1290.33 283 1288.7 283H1276.32C1274.59 283 1273.72 282.136 1273.72 280.504V232.024H1244.92C1243.2 232.024 1242.43 231.16 1242.43 229.528V218.296C1242.43 216.664 1243.2 215.8 1244.92 215.8ZM1338.33 215.8H1383.74C1404.86 215.8 1413.5 224.152 1413.5 242.872V255.928C1413.5 274.648 1404.86 283 1383.74 283H1338.33C1336.41 283 1335.45 282.04 1335.45 280.12V218.68C1335.45 216.76 1336.41 215.8 1338.33 215.8ZM1352.92 232.984V265.816C1352.92 266.776 1353.31 267.256 1354.07 267.256H1383.35C1393.15 267.256 1396.03 264.376 1396.03 254.392V244.408C1396.03 234.424 1393.15 231.64 1383.35 231.64H1354.07C1353.31 231.64 1352.92 232.024 1352.92 232.984Z" fill="#EC7E32"/>
</g>
<defs>
<filter id="filter0_i_75_2" x="0" y="0" width="1496" height="395" filterUnits="userSpaceOnUse" color-interpolation-filters="sRGB">
<feFlood flood-opacity="0" result="BackgroundImageFix"/>
<feBlend mode="normal" in="SourceGraphic" in2="BackgroundImageFix" result="shape"/>
<feColorMatrix in="SourceAlpha" type="matrix" values="0 0 0 0 0 0 0 0 0 0 0 0 0 0 0 0 0 0 127 0" result="hardAlpha"/>
<feOffset dy="4"/>
<feGaussianBlur stdDeviation="2"/>
<feComposite in2="hardAlpha" operator="arithmetic" k2="-1" k3="1"/>
<feColorMatrix type="matrix" values="0 0 0 0 0 0 0 0 0 0 0 0 0 0 0 0 0 0 0.75 0"/>
<feBlend mode="normal" in2="shape" result="effect1_innerShadow_75_2"/>
</filter>
<clipPath id="clip0_75_2">
<rect width="1496" height="391" fill="white"/>
</clipPath>
</defs>
</svg>
