<svg width="80" height="80" viewBox="0 0 80 80" fill="none" xmlns="http://www.w3.org/2000/svg">
<path fill-rule="evenodd" clip-rule="evenodd" d="M39.96 72.6C34.04 72.6 28.24 71 23.16 68L21.96 67.28L9.48 70.56L12.8 58.4L12 57.16C8.72 51.92 6.96 45.84 6.96 39.64C6.96 21.48 21.76 6.68 39.92 6.68C48.72 6.68 57 10.12 63.2 16.36C69.44 22.6 72.84 30.88 72.84 39.68C72.92 57.84 58.12 72.6 39.96 72.6ZM51.28 44.72C52.16 45.08 57.04 47.48 58.04 47.96C59.04 48.44 59.64 48.64 59.92 49.08C60.2 49.52 60.2 51.48 59.36 53.8C58.56 56.12 54.6 58.24 52.68 58.52C50.96 58.76 48.8 58.88 46.44 58.12C45 57.68 43.16 57.08 40.8 56.04C30.88 51.76 24.36 41.76 23.88 41.08L23.8722 41.0696C23.3628 40.3906 19.84 35.6945 19.84 30.84C19.84 25.96 22.4 23.56 23.28 22.56C24.2 21.56 25.24 21.32 25.92 21.32H27.84C28.44 21.36 29.28 21.12 30.08 23.04C30.88 25.04 32.88 29.92 33.12 30.4C33.36 30.88 33.52 31.44 33.2 32.12C32.88 32.76 32.68 33.2 32.2 33.76C31.72 34.32 31.16 35.04 30.72 35.48C30.2 36 29.72 36.52 30.28 37.52C30.88 38.52 32.84 41.76 35.8 44.4C39.56 47.76 42.76 48.84 43.76 49.32C44.76 49.84 45.36 49.76 45.92 49.08C46.48 48.44 48.36 46.2 49.04 45.2C49.72 44.24 50.36 44.4 51.28 44.72Z" fill="#70AD47"/>
</svg>
